<?xml version="1.0" encoding="UTF-8"?>
<!DOCTYPE svg PUBLIC "-//W3C//DTD SVG 1.1//EN" "http://www.w3.org/Graphics/SVG/1.1/DTD/svg11.dtd">
<svg version="1.2" width="297mm" height="210mm" viewBox="0 0 29700 21000" preserveAspectRatio="xMidYMid" fill-rule="evenodd" clip-path="url(#presentation_clip_path)" stroke-width="28.222" stroke-linejoin="round" xmlns="http://www.w3.org/2000/svg" xmlns:ooo="http://xml.openoffice.org/svg/export" xmlns:xlink="http://www.w3.org/1999/xlink" xml:space="preserve">
 <defs class="ClipPathGroup">
  <clipPath id="presentation_clip_path" clipPathUnits="userSpaceOnUse">
   <rect x="0" y="0" width="29700" height="21000"/>
  </clipPath>
 </defs>
 <defs class="TextShapeIndex">
  <g ooo:slide="id1" ooo:id-list="id3 id4 id5 id6 id7 id8 id9 id10 id11 id12 id13 id14 id15 id16 id17 id18 id19 id20 id21 id22 id23 id24 id25 id26 id27 id28 id29 id30 id31 id32 id33 id34 id35 id36 id37 id38 id39 id40 id41 id42"/>
 </defs>
 <defs class="EmbeddedBulletChars">
  <g id="bullet-char-template(57356)" transform="scale(0.00048828125,-0.00048828125)">
   <path d="M 580,1141 L 1163,571 580,0 -4,571 580,1141 Z"/>
  </g>
  <g id="bullet-char-template(57354)" transform="scale(0.00048828125,-0.00048828125)">
   <path d="M 8,1128 L 1137,1128 1137,0 8,0 8,1128 Z"/>
  </g>
  <g id="bullet-char-template(10146)" transform="scale(0.00048828125,-0.00048828125)">
   <path d="M 174,0 L 602,739 174,1481 1456,739 174,0 Z M 1358,739 L 309,1346 659,739 1358,739 Z"/>
  </g>
  <g id="bullet-char-template(10132)" transform="scale(0.00048828125,-0.00048828125)">
   <path d="M 2015,739 L 1276,0 717,0 1260,543 174,543 174,936 1260,936 717,1481 1274,1481 2015,739 Z"/>
  </g>
  <g id="bullet-char-template(10007)" transform="scale(0.00048828125,-0.00048828125)">
   <path d="M 0,-2 C -7,14 -16,27 -25,37 L 356,567 C 262,823 215,952 215,954 215,979 228,992 255,992 264,992 276,990 289,987 310,991 331,999 354,1012 L 381,999 492,748 772,1049 836,1024 860,1049 C 881,1039 901,1025 922,1006 886,937 835,863 770,784 769,783 710,716 594,584 L 774,223 C 774,196 753,168 711,139 L 727,119 C 717,90 699,76 672,76 641,76 570,178 457,381 L 164,-76 C 142,-110 111,-127 72,-127 30,-127 9,-110 8,-76 1,-67 -2,-52 -2,-32 -2,-23 -1,-13 0,-2 Z"/>
  </g>
  <g id="bullet-char-template(10004)" transform="scale(0.00048828125,-0.00048828125)">
   <path d="M 285,-33 C 182,-33 111,30 74,156 52,228 41,333 41,471 41,549 55,616 82,672 116,743 169,778 240,778 293,778 328,747 346,684 L 369,508 C 377,444 397,411 428,410 L 1163,1116 C 1174,1127 1196,1133 1229,1133 1271,1133 1292,1118 1292,1087 L 1292,965 C 1292,929 1282,901 1262,881 L 442,47 C 390,-6 338,-33 285,-33 Z"/>
  </g>
  <g id="bullet-char-template(9679)" transform="scale(0.00048828125,-0.00048828125)">
   <path d="M 813,0 C 632,0 489,54 383,161 276,268 223,411 223,592 223,773 276,916 383,1023 489,1130 632,1184 813,1184 992,1184 1136,1130 1245,1023 1353,916 1407,772 1407,592 1407,412 1353,268 1245,161 1136,54 992,0 813,0 Z"/>
  </g>
  <g id="bullet-char-template(8226)" transform="scale(0.00048828125,-0.00048828125)">
   <path d="M 346,457 C 273,457 209,483 155,535 101,586 74,649 74,723 74,796 101,859 155,911 209,963 273,989 346,989 419,989 480,963 531,910 582,859 608,796 608,723 608,648 583,586 532,535 482,483 420,457 346,457 Z"/>
  </g>
  <g id="bullet-char-template(8211)" transform="scale(0.00048828125,-0.00048828125)">
   <path d="M -4,459 L 1135,459 1135,606 -4,606 -4,459 Z"/>
  </g>
 </defs>
 <defs class="TextEmbeddedBitmaps"/>
 <g>
  <g id="id2" class="Master_Slide">
   <g id="bg-id2" class="Background"/>
   <g id="bo-id2" class="BackgroundObjects"/>
  </g>
 </g>
 <g class="SlideGroup">
  <g>
   <g id="id1" class="Slide" clip-path="url(#presentation_clip_path)">
    <g class="Page">
     <g class="com.sun.star.drawing.CustomShape">
      <g id="id3">
       <path fill="rgb(255,255,204)" stroke="none" d="M 16214,19857 L 3954,19857 3954,1157 28474,1157 28474,19857 16214,19857 Z"/>
       <path fill="none" stroke="rgb(221,221,221)" d="M 16214,19857 L 3954,19857 3954,1157 28474,1157 28474,19857 16214,19857 Z"/>
      </g>
     </g>
     <g class="com.sun.star.drawing.CustomShape">
      <g id="id4">
       <path fill="rgb(153,204,153)" stroke="none" d="M 26070,13869 L 24699,13869 24699,2529 27440,2529 27440,13869 26070,13869 Z"/>
       <path fill="none" stroke="rgb(52,101,175)" d="M 26070,13869 L 24699,13869 24699,2529 27440,2529 27440,13869 26070,13869 Z"/>
       <text class="TextShape"><tspan class="TextParagraph" font-family="Liberation Sans, sans-serif" font-size="459px" font-weight="400"><tspan class="TextPosition" x="25155" y="8358"><tspan fill="rgb(0,0,0)" stroke="none">Statistics</tspan></tspan></tspan></text>
      </g>
     </g>
     <g class="com.sun.star.drawing.CustomShape">
      <g id="id5">
       <path fill="rgb(153,204,153)" stroke="none" d="M 8366,13768 L 6710,13768 6710,6375 10022,6375 10022,13768 8366,13768 Z"/>
       <path fill="none" stroke="rgb(52,101,175)" d="M 8366,13768 L 6710,13768 6710,6375 10022,6375 10022,13768 8366,13768 Z"/>
       <text class="TextShape"><tspan class="TextParagraph" font-family="Liberation Sans, sans-serif" font-size="423px" font-weight="400"><tspan class="TextPosition" x="7236" y="10220"><tspan fill="rgb(0,0,0)" stroke="none">MD Handler</tspan></tspan></tspan></text>
      </g>
     </g>
     <g class="com.sun.star.drawing.CustomShape">
      <g id="id6">
       <path fill="rgb(153,204,153)" stroke="none" d="M 14070,4400 L 6709,4400 6709,2631 21430,2631 21430,4400 14070,4400 Z"/>
       <path fill="none" stroke="rgb(52,101,175)" d="M 14070,4400 L 6709,4400 6709,2631 21430,2631 21430,4400 14070,4400 Z"/>
       <text class="TextShape"><tspan class="TextParagraph" font-family="Liberation Sans, sans-serif" font-size="459px" font-weight="400"><tspan class="TextPosition" x="13397" y="3675"><tspan fill="rgb(0,0,0)" stroke="none">Parser</tspan></tspan></tspan></text>
      </g>
     </g>
     <g class="com.sun.star.drawing.CustomShape">
      <g id="id7">
       <path fill="rgb(153,204,153)" stroke="none" d="M 14093,19176 L 6978,19176 6978,17500 21207,17500 21207,19176 14093,19176 Z"/>
       <path fill="none" stroke="rgb(52,101,175)" d="M 14093,19176 L 6978,19176 6978,17500 21207,17500 21207,19176 14093,19176 Z"/>
       <text class="TextShape"><tspan class="TextParagraph" font-family="Liberation Sans, sans-serif" font-size="459px" font-weight="400"><tspan class="TextPosition" x="13140" y="18497"><tspan fill="rgb(0,0,0)" stroke="none">Publisher</tspan></tspan></tspan></text>
      </g>
     </g>
     <g class="Group">
      <g class="com.sun.star.drawing.CustomShape">
       <g id="id8">
        <path fill="rgb(153,204,153)" stroke="none" d="M 17198,13862 L 13088,13862 13088,6376 21307,6376 21307,13862 17198,13862 Z"/>
        <path fill="none" stroke="rgb(52,101,175)" d="M 17198,13862 L 13088,13862 13088,6376 21307,6376 21307,13862 17198,13862 Z"/>
       </g>
      </g>
      <g class="com.sun.star.drawing.TextShape">
       <g id="id9">
        <text class="TextShape"><tspan class="TextParagraph" font-family="Liberation Sans, sans-serif" font-size="423px" font-weight="400"><tspan class="TextPosition" x="15369" y="7320"><tspan fill="rgb(0,0,0)" stroke="none">Order Book</tspan></tspan></tspan></text>
       </g>
      </g>
      <g class="com.sun.star.drawing.TextShape">
       <g id="id10">
        <text class="TextShape"><tspan class="TextParagraph" font-family="Liberation Sans, sans-serif" font-size="353px" font-weight="400"><tspan class="TextPosition" x="14934" y="9532"><tspan fill="rgb(0,0,0)" stroke="none">Book Data Structure</tspan></tspan></tspan></text>
       </g>
      </g>
      <g class="com.sun.star.drawing.TableShape">
       <g>
        <path fill="rgb(179,179,179)" stroke="none" d="M 13527,10181 L 14731,10181 14731,10808 13527,10808 13527,10181 Z"/>
        <text class="TextShape"><tspan class="TextParagraph" font-family="Liberation Sans, sans-serif" font-size="212px" font-weight="400"><tspan class="TextPosition" x="13777" y="10502"><tspan fill="rgb(0,0,0)" stroke="none">Num</tspan></tspan></tspan></text>
        <path fill="rgb(179,179,179)" stroke="none" d="M 14731,10181 L 15935,10181 15935,10808 14731,10808 14731,10181 Z"/>
        <text class="TextShape"><tspan class="TextParagraph" font-family="Liberation Sans, sans-serif" font-size="212px" font-weight="400"><tspan class="TextPosition" x="14981" y="10502"><tspan fill="rgb(0,0,0)" stroke="none">Qnty</tspan></tspan></tspan></text>
        <path fill="rgb(179,179,179)" stroke="none" d="M 15935,10181 L 17139,10181 17139,10808 15935,10808 15935,10181 Z"/>
        <text class="TextShape"><tspan class="TextParagraph" font-family="Liberation Sans, sans-serif" font-size="212px" font-weight="400"><tspan class="TextPosition" x="16185" y="10502"><tspan fill="rgb(0,0,0)" stroke="none">B</tspan></tspan></tspan></text>
        <path fill="rgb(179,179,179)" stroke="none" d="M 17139,10181 L 18343,10181 18343,10808 17139,10808 17139,10181 Z"/>
        <text class="TextShape"><tspan class="TextParagraph" font-family="Liberation Sans, sans-serif" font-size="212px" font-weight="400"><tspan class="TextPosition" x="17389" y="10502"><tspan fill="rgb(0,0,0)" stroke="none">S</tspan></tspan></tspan></text>
        <path fill="rgb(179,179,179)" stroke="none" d="M 18343,10181 L 19547,10181 19547,10808 18343,10808 18343,10181 Z"/>
        <text class="TextShape"><tspan class="TextParagraph" font-family="Liberation Sans, sans-serif" font-size="212px" font-weight="400"><tspan class="TextPosition" x="18593" y="10502"><tspan fill="rgb(0,0,0)" stroke="none">Qnty</tspan></tspan></tspan></text>
        <path fill="rgb(179,179,179)" stroke="none" d="M 19547,10181 L 20764,10181 20764,10808 19547,10808 19547,10181 Z"/>
        <text class="TextShape"><tspan class="TextParagraph" font-family="Liberation Sans, sans-serif" font-size="212px" font-weight="400"><tspan class="TextPosition" x="19797" y="10502"><tspan fill="rgb(0,0,0)" stroke="none">Num</tspan></tspan></tspan></text>
        <path fill="rgb(204,204,204)" stroke="none" d="M 13527,10808 L 14731,10808 14731,11330 13527,11330 13527,10808 Z"/>
        <text class="TextShape"><tspan class="TextParagraph" font-family="Liberation Sans, sans-serif" font-size="212px" font-weight="400"><tspan class="TextPosition" x="13777" y="11129"><tspan fill="rgb(0,0,0)" stroke="none">5</tspan></tspan></tspan></text>
        <path fill="rgb(204,204,204)" stroke="none" d="M 14731,10808 L 15935,10808 15935,11330 14731,11330 14731,10808 Z"/>
        <text class="TextShape"><tspan class="TextParagraph" font-family="Liberation Sans, sans-serif" font-size="212px" font-weight="400"><tspan class="TextPosition" x="14981" y="11129"><tspan fill="rgb(0,0,0)" stroke="none">10</tspan></tspan></tspan></text>
        <path fill="rgb(204,204,204)" stroke="none" d="M 15935,10808 L 17139,10808 17139,11330 15935,11330 15935,10808 Z"/>
        <text class="TextShape"><tspan class="TextParagraph" font-family="Liberation Sans, sans-serif" font-size="212px" font-weight="400"><tspan class="TextPosition" x="16185" y="11129"><tspan fill="rgb(0,0,0)" stroke="none">100</tspan></tspan></tspan></text>
        <path fill="rgb(204,204,204)" stroke="none" d="M 17139,10808 L 18343,10808 18343,11330 17139,11330 17139,10808 Z"/>
        <text class="TextShape"><tspan class="TextParagraph" font-family="Liberation Sans, sans-serif" font-size="212px" font-weight="400"><tspan class="TextPosition" x="17389" y="11129"><tspan fill="rgb(0,0,0)" stroke="none">110</tspan></tspan></tspan></text>
        <path fill="rgb(204,204,204)" stroke="none" d="M 18343,10808 L 19547,10808 19547,11330 18343,11330 18343,10808 Z"/>
        <text class="TextShape"><tspan class="TextParagraph" font-family="Liberation Sans, sans-serif" font-size="212px" font-weight="400"><tspan class="TextPosition" x="18593" y="11129"><tspan fill="rgb(0,0,0)" stroke="none">13</tspan></tspan></tspan></text>
        <path fill="rgb(204,204,204)" stroke="none" d="M 19547,10808 L 20764,10808 20764,11330 19547,11330 19547,10808 Z"/>
        <text class="TextShape"><tspan class="TextParagraph" font-family="Liberation Sans, sans-serif" font-size="212px" font-weight="400"><tspan class="TextPosition" x="19797" y="11129"><tspan fill="rgb(0,0,0)" stroke="none">8</tspan></tspan></tspan></text>
        <path fill="rgb(230,230,230)" stroke="none" d="M 13527,11330 L 14731,11330 14731,11852 13527,11852 13527,11330 Z"/>
        <text class="TextShape"><tspan class="TextParagraph" font-family="Liberation Sans, sans-serif" font-size="212px" font-weight="400"><tspan class="TextPosition" x="13777" y="11651"><tspan fill="rgb(0,0,0)" stroke="none">12</tspan></tspan></tspan></text>
        <path fill="rgb(230,230,230)" stroke="none" d="M 14731,11330 L 15935,11330 15935,11852 14731,11852 14731,11330 Z"/>
        <text class="TextShape"><tspan class="TextParagraph" font-family="Liberation Sans, sans-serif" font-size="212px" font-weight="400"><tspan class="TextPosition" x="14981" y="11651"><tspan fill="rgb(0,0,0)" stroke="none">23</tspan></tspan></tspan></text>
        <path fill="rgb(230,230,230)" stroke="none" d="M 15935,11330 L 17139,11330 17139,11852 15935,11852 15935,11330 Z"/>
        <text class="TextShape"><tspan class="TextParagraph" font-family="Liberation Sans, sans-serif" font-size="212px" font-weight="400"><tspan class="TextPosition" x="16185" y="11651"><tspan fill="rgb(0,0,0)" stroke="none">90</tspan></tspan></tspan></text>
        <path fill="rgb(230,230,230)" stroke="none" d="M 17139,11330 L 18343,11330 18343,11852 17139,11852 17139,11330 Z"/>
        <text class="TextShape"><tspan class="TextParagraph" font-family="Liberation Sans, sans-serif" font-size="212px" font-weight="400"><tspan class="TextPosition" x="17389" y="11651"><tspan fill="rgb(0,0,0)" stroke="none">120</tspan></tspan></tspan></text>
        <path fill="rgb(230,230,230)" stroke="none" d="M 18343,11330 L 19547,11330 19547,11852 18343,11852 18343,11330 Z"/>
        <text class="TextShape"><tspan class="TextParagraph" font-family="Liberation Sans, sans-serif" font-size="212px" font-weight="400"><tspan class="TextPosition" x="18593" y="11651"><tspan fill="rgb(0,0,0)" stroke="none">6</tspan></tspan></tspan></text>
        <path fill="rgb(230,230,230)" stroke="none" d="M 19547,11330 L 20764,11330 20764,11852 19547,11852 19547,11330 Z"/>
        <text class="TextShape"><tspan class="TextParagraph" font-family="Liberation Sans, sans-serif" font-size="212px" font-weight="400"><tspan class="TextPosition" x="19797" y="11651"><tspan fill="rgb(0,0,0)" stroke="none">2</tspan></tspan></tspan></text>
        <path fill="rgb(204,204,204)" stroke="none" d="M 13527,11852 L 14731,11852 14731,12374 13527,12374 13527,11852 Z"/>
        <text class="TextShape"><tspan class="TextParagraph" font-family="Liberation Sans, sans-serif" font-size="212px" font-weight="400"><tspan class="TextPosition" x="13777" y="12173"><tspan fill="rgb(0,0,0)" stroke="none">15</tspan></tspan></tspan></text>
        <path fill="rgb(204,204,204)" stroke="none" d="M 14731,11852 L 15935,11852 15935,12374 14731,12374 14731,11852 Z"/>
        <text class="TextShape"><tspan class="TextParagraph" font-family="Liberation Sans, sans-serif" font-size="212px" font-weight="400"><tspan class="TextPosition" x="14981" y="12173"><tspan fill="rgb(0,0,0)" stroke="none">14</tspan></tspan></tspan></text>
        <path fill="rgb(204,204,204)" stroke="none" d="M 15935,11852 L 17139,11852 17139,12374 15935,12374 15935,11852 Z"/>
        <text class="TextShape"><tspan class="TextParagraph" font-family="Liberation Sans, sans-serif" font-size="212px" font-weight="400"><tspan class="TextPosition" x="16185" y="12173"><tspan fill="rgb(0,0,0)" stroke="none">80</tspan></tspan></tspan></text>
        <path fill="rgb(204,204,204)" stroke="none" d="M 17139,11852 L 18343,11852 18343,12374 17139,12374 17139,11852 Z"/>
        <text class="TextShape"><tspan class="TextParagraph" font-family="Liberation Sans, sans-serif" font-size="212px" font-weight="400"><tspan class="TextPosition" x="17389" y="12173"><tspan fill="rgb(0,0,0)" stroke="none">130</tspan></tspan></tspan></text>
        <path fill="rgb(204,204,204)" stroke="none" d="M 18343,11852 L 19547,11852 19547,12374 18343,12374 18343,11852 Z"/>
        <text class="TextShape"><tspan class="TextParagraph" font-family="Liberation Sans, sans-serif" font-size="212px" font-weight="400"><tspan class="TextPosition" x="18593" y="12173"><tspan fill="rgb(0,0,0)" stroke="none">4</tspan></tspan></tspan></text>
        <path fill="rgb(204,204,204)" stroke="none" d="M 19547,11852 L 20764,11852 20764,12374 19547,12374 19547,11852 Z"/>
        <text class="TextShape"><tspan class="TextParagraph" font-family="Liberation Sans, sans-serif" font-size="212px" font-weight="400"><tspan class="TextPosition" x="19797" y="12173"><tspan fill="rgb(0,0,0)" stroke="none">4</tspan></tspan></tspan></text>
        <path fill="rgb(230,230,230)" stroke="none" d="M 13527,12374 L 14731,12374 14731,12896 13527,12896 13527,12374 Z"/>
        <text class="TextShape"><tspan class="TextParagraph" font-family="Liberation Sans, sans-serif" font-size="212px" font-weight="400"><tspan class="TextPosition" x="13777" y="12695"><tspan fill="rgb(0,0,0)" stroke="none">15</tspan></tspan></tspan></text>
        <path fill="rgb(230,230,230)" stroke="none" d="M 14731,12374 L 15935,12374 15935,12896 14731,12896 14731,12374 Z"/>
        <text class="TextShape"><tspan class="TextParagraph" font-family="Liberation Sans, sans-serif" font-size="212px" font-weight="400"><tspan class="TextPosition" x="14981" y="12695"><tspan fill="rgb(0,0,0)" stroke="none">20</tspan></tspan></tspan></text>
        <path fill="rgb(230,230,230)" stroke="none" d="M 15935,12374 L 17139,12374 17139,12896 15935,12896 15935,12374 Z"/>
        <text class="TextShape"><tspan class="TextParagraph" font-family="Liberation Sans, sans-serif" font-size="212px" font-weight="400"><tspan class="TextPosition" x="16185" y="12695"><tspan fill="rgb(0,0,0)" stroke="none">70</tspan></tspan></tspan></text>
        <path fill="rgb(230,230,230)" stroke="none" d="M 17139,12374 L 18343,12374 18343,12896 17139,12896 17139,12374 Z"/>
        <text class="TextShape"><tspan class="TextParagraph" font-family="Liberation Sans, sans-serif" font-size="212px" font-weight="400"><tspan class="TextPosition" x="17389" y="12695"><tspan fill="rgb(0,0,0)" stroke="none">140</tspan></tspan></tspan></text>
        <path fill="rgb(230,230,230)" stroke="none" d="M 18343,12374 L 19547,12374 19547,12896 18343,12896 18343,12374 Z"/>
        <text class="TextShape"><tspan class="TextParagraph" font-family="Liberation Sans, sans-serif" font-size="212px" font-weight="400"><tspan class="TextPosition" x="18593" y="12695"><tspan fill="rgb(0,0,0)" stroke="none">15</tspan></tspan></tspan></text>
        <path fill="rgb(230,230,230)" stroke="none" d="M 19547,12374 L 20764,12374 20764,12896 19547,12896 19547,12374 Z"/>
        <text class="TextShape"><tspan class="TextParagraph" font-family="Liberation Sans, sans-serif" font-size="212px" font-weight="400"><tspan class="TextPosition" x="19797" y="12695"><tspan fill="rgb(0,0,0)" stroke="none">30</tspan></tspan></tspan></text>
        <path fill="rgb(204,204,204)" stroke="none" d="M 13527,12896 L 14731,12896 14731,13427 13527,13427 13527,12896 Z"/>
        <text class="TextShape"><tspan class="TextParagraph" font-family="Liberation Sans, sans-serif" font-size="212px" font-weight="400"><tspan class="TextPosition" x="13777" y="13217"><tspan fill="rgb(0,0,0)" stroke="none">10</tspan></tspan></tspan></text>
        <path fill="rgb(204,204,204)" stroke="none" d="M 14731,12896 L 15935,12896 15935,13427 14731,13427 14731,12896 Z"/>
        <text class="TextShape"><tspan class="TextParagraph" font-family="Liberation Sans, sans-serif" font-size="212px" font-weight="400"><tspan class="TextPosition" x="14981" y="13217"><tspan fill="rgb(0,0,0)" stroke="none">23</tspan></tspan></tspan></text>
        <path fill="rgb(204,204,204)" stroke="none" d="M 15935,12896 L 17139,12896 17139,13427 15935,13427 15935,12896 Z"/>
        <text class="TextShape"><tspan class="TextParagraph" font-family="Liberation Sans, sans-serif" font-size="212px" font-weight="400"><tspan class="TextPosition" x="16185" y="13217"><tspan fill="rgb(0,0,0)" stroke="none">60</tspan></tspan></tspan></text>
        <path fill="rgb(204,204,204)" stroke="none" d="M 17139,12896 L 18343,12896 18343,13427 17139,13427 17139,12896 Z"/>
        <text class="TextShape"><tspan class="TextParagraph" font-family="Liberation Sans, sans-serif" font-size="212px" font-weight="400"><tspan class="TextPosition" x="17389" y="13217"><tspan fill="rgb(0,0,0)" stroke="none">150</tspan></tspan></tspan></text>
        <path fill="rgb(204,204,204)" stroke="none" d="M 18343,12896 L 19547,12896 19547,13427 18343,13427 18343,12896 Z"/>
        <text class="TextShape"><tspan class="TextParagraph" font-family="Liberation Sans, sans-serif" font-size="212px" font-weight="400"><tspan class="TextPosition" x="18593" y="13217"><tspan fill="rgb(0,0,0)" stroke="none">45</tspan></tspan></tspan></text>
        <path fill="rgb(204,204,204)" stroke="none" d="M 19547,12896 L 20764,12896 20764,13427 19547,13427 19547,12896 Z"/>
        <text class="TextShape"><tspan class="TextParagraph" font-family="Liberation Sans, sans-serif" font-size="212px" font-weight="400"><tspan class="TextPosition" x="19797" y="13217"><tspan fill="rgb(0,0,0)" stroke="none">12</tspan></tspan></tspan></text>
        <path fill="none" stroke="rgb(0,0,0)" d="M 13527,10181 L 13527,10808"/>
        <path fill="none" stroke="rgb(0,0,0)" d="M 14731,10181 L 14731,10808"/>
        <path fill="none" stroke="rgb(0,0,0)" d="M 13527,10181 L 14731,10181"/>
        <path fill="none" stroke="rgb(0,0,0)" d="M 14731,10181 L 14731,10808"/>
        <path fill="none" stroke="rgb(0,0,0)" d="M 15935,10181 L 15935,10808"/>
        <path fill="none" stroke="rgb(0,0,0)" d="M 14731,10181 L 15935,10181"/>
        <path fill="none" stroke="rgb(0,0,0)" d="M 15935,10181 L 15935,10808"/>
        <path fill="none" stroke="rgb(0,0,0)" d="M 17139,10181 L 17139,10808"/>
        <path fill="none" stroke="rgb(0,0,0)" d="M 15935,10181 L 17139,10181"/>
        <path fill="none" stroke="rgb(0,0,0)" d="M 17139,10181 L 17139,10808"/>
        <path fill="none" stroke="rgb(0,0,0)" d="M 18343,10181 L 18343,10808"/>
        <path fill="none" stroke="rgb(0,0,0)" d="M 17139,10181 L 18343,10181"/>
        <path fill="none" stroke="rgb(0,0,0)" d="M 18343,10181 L 18343,10808"/>
        <path fill="none" stroke="rgb(0,0,0)" d="M 19547,10181 L 19547,10808"/>
        <path fill="none" stroke="rgb(0,0,0)" d="M 18343,10181 L 19547,10181"/>
        <path fill="none" stroke="rgb(0,0,0)" d="M 19547,10181 L 19547,10808"/>
        <path fill="none" stroke="rgb(0,0,0)" d="M 20764,10181 L 20764,10808"/>
        <path fill="none" stroke="rgb(0,0,0)" d="M 19547,10181 L 20764,10181"/>
        <path fill="none" stroke="rgb(0,0,0)" d="M 13527,10808 L 13527,11330"/>
        <path fill="none" stroke="rgb(0,0,0)" d="M 14731,10808 L 14731,11330"/>
        <path fill="none" stroke="rgb(0,0,0)" d="M 13527,10808 L 14731,10808"/>
        <path fill="none" stroke="rgb(0,0,0)" d="M 14731,10808 L 14731,11330"/>
        <path fill="none" stroke="rgb(0,0,0)" d="M 15935,10808 L 15935,11330"/>
        <path fill="none" stroke="rgb(0,0,0)" d="M 14731,10808 L 15935,10808"/>
        <path fill="none" stroke="rgb(0,0,0)" d="M 15935,10808 L 15935,11330"/>
        <path fill="none" stroke="rgb(0,0,0)" d="M 17139,10808 L 17139,11330"/>
        <path fill="none" stroke="rgb(0,0,0)" d="M 15935,10808 L 17139,10808"/>
        <path fill="none" stroke="rgb(0,0,0)" d="M 17139,10808 L 17139,11330"/>
        <path fill="none" stroke="rgb(0,0,0)" d="M 18343,10808 L 18343,11330"/>
        <path fill="none" stroke="rgb(0,0,0)" d="M 17139,10808 L 18343,10808"/>
        <path fill="none" stroke="rgb(0,0,0)" d="M 18343,10808 L 18343,11330"/>
        <path fill="none" stroke="rgb(0,0,0)" d="M 19547,10808 L 19547,11330"/>
        <path fill="none" stroke="rgb(0,0,0)" d="M 18343,10808 L 19547,10808"/>
        <path fill="none" stroke="rgb(0,0,0)" d="M 19547,10808 L 19547,11330"/>
        <path fill="none" stroke="rgb(0,0,0)" d="M 20764,10808 L 20764,11330"/>
        <path fill="none" stroke="rgb(0,0,0)" d="M 19547,10808 L 20764,10808"/>
        <path fill="none" stroke="rgb(0,0,0)" d="M 13527,11330 L 13527,11852"/>
        <path fill="none" stroke="rgb(0,0,0)" d="M 14731,11330 L 14731,11852"/>
        <path fill="none" stroke="rgb(0,0,0)" d="M 13527,11330 L 14731,11330"/>
        <path fill="none" stroke="rgb(0,0,0)" d="M 14731,11330 L 14731,11852"/>
        <path fill="none" stroke="rgb(0,0,0)" d="M 15935,11330 L 15935,11852"/>
        <path fill="none" stroke="rgb(0,0,0)" d="M 14731,11330 L 15935,11330"/>
        <path fill="none" stroke="rgb(0,0,0)" d="M 15935,11330 L 15935,11852"/>
        <path fill="none" stroke="rgb(0,0,0)" d="M 17139,11330 L 17139,11852"/>
        <path fill="none" stroke="rgb(0,0,0)" d="M 15935,11330 L 17139,11330"/>
        <path fill="none" stroke="rgb(0,0,0)" d="M 17139,11330 L 17139,11852"/>
        <path fill="none" stroke="rgb(0,0,0)" d="M 18343,11330 L 18343,11852"/>
        <path fill="none" stroke="rgb(0,0,0)" d="M 17139,11330 L 18343,11330"/>
        <path fill="none" stroke="rgb(0,0,0)" d="M 18343,11330 L 18343,11852"/>
        <path fill="none" stroke="rgb(0,0,0)" d="M 19547,11330 L 19547,11852"/>
        <path fill="none" stroke="rgb(0,0,0)" d="M 18343,11330 L 19547,11330"/>
        <path fill="none" stroke="rgb(0,0,0)" d="M 19547,11330 L 19547,11852"/>
        <path fill="none" stroke="rgb(0,0,0)" d="M 20764,11330 L 20764,11852"/>
        <path fill="none" stroke="rgb(0,0,0)" d="M 19547,11330 L 20764,11330"/>
        <path fill="none" stroke="rgb(0,0,0)" d="M 13527,11852 L 13527,12374"/>
        <path fill="none" stroke="rgb(0,0,0)" d="M 14731,11852 L 14731,12374"/>
        <path fill="none" stroke="rgb(0,0,0)" d="M 13527,11852 L 14731,11852"/>
        <path fill="none" stroke="rgb(0,0,0)" d="M 14731,11852 L 14731,12374"/>
        <path fill="none" stroke="rgb(0,0,0)" d="M 15935,11852 L 15935,12374"/>
        <path fill="none" stroke="rgb(0,0,0)" d="M 14731,11852 L 15935,11852"/>
        <path fill="none" stroke="rgb(0,0,0)" d="M 15935,11852 L 15935,12374"/>
        <path fill="none" stroke="rgb(0,0,0)" d="M 17139,11852 L 17139,12374"/>
        <path fill="none" stroke="rgb(0,0,0)" d="M 15935,11852 L 17139,11852"/>
        <path fill="none" stroke="rgb(0,0,0)" d="M 17139,11852 L 17139,12374"/>
        <path fill="none" stroke="rgb(0,0,0)" d="M 18343,11852 L 18343,12374"/>
        <path fill="none" stroke="rgb(0,0,0)" d="M 17139,11852 L 18343,11852"/>
        <path fill="none" stroke="rgb(0,0,0)" d="M 18343,11852 L 18343,12374"/>
        <path fill="none" stroke="rgb(0,0,0)" d="M 19547,11852 L 19547,12374"/>
        <path fill="none" stroke="rgb(0,0,0)" d="M 18343,11852 L 19547,11852"/>
        <path fill="none" stroke="rgb(0,0,0)" d="M 19547,11852 L 19547,12374"/>
        <path fill="none" stroke="rgb(0,0,0)" d="M 20764,11852 L 20764,12374"/>
        <path fill="none" stroke="rgb(0,0,0)" d="M 19547,11852 L 20764,11852"/>
        <path fill="none" stroke="rgb(0,0,0)" d="M 13527,12374 L 13527,12896"/>
        <path fill="none" stroke="rgb(0,0,0)" d="M 14731,12374 L 14731,12896"/>
        <path fill="none" stroke="rgb(0,0,0)" d="M 13527,12374 L 14731,12374"/>
        <path fill="none" stroke="rgb(0,0,0)" d="M 14731,12374 L 14731,12896"/>
        <path fill="none" stroke="rgb(0,0,0)" d="M 15935,12374 L 15935,12896"/>
        <path fill="none" stroke="rgb(0,0,0)" d="M 14731,12374 L 15935,12374"/>
        <path fill="none" stroke="rgb(0,0,0)" d="M 15935,12374 L 15935,12896"/>
        <path fill="none" stroke="rgb(0,0,0)" d="M 17139,12374 L 17139,12896"/>
        <path fill="none" stroke="rgb(0,0,0)" d="M 15935,12374 L 17139,12374"/>
        <path fill="none" stroke="rgb(0,0,0)" d="M 17139,12374 L 17139,12896"/>
        <path fill="none" stroke="rgb(0,0,0)" d="M 18343,12374 L 18343,12896"/>
        <path fill="none" stroke="rgb(0,0,0)" d="M 17139,12374 L 18343,12374"/>
        <path fill="none" stroke="rgb(0,0,0)" d="M 18343,12374 L 18343,12896"/>
        <path fill="none" stroke="rgb(0,0,0)" d="M 19547,12374 L 19547,12896"/>
        <path fill="none" stroke="rgb(0,0,0)" d="M 18343,12374 L 19547,12374"/>
        <path fill="none" stroke="rgb(0,0,0)" d="M 19547,12374 L 19547,12896"/>
        <path fill="none" stroke="rgb(0,0,0)" d="M 20764,12374 L 20764,12896"/>
        <path fill="none" stroke="rgb(0,0,0)" d="M 19547,12374 L 20764,12374"/>
        <path fill="none" stroke="rgb(0,0,0)" d="M 13527,12896 L 13527,13427"/>
        <path fill="none" stroke="rgb(0,0,0)" d="M 13527,13427 L 14731,13427"/>
        <path fill="none" stroke="rgb(0,0,0)" d="M 14731,12896 L 14731,13427"/>
        <path fill="none" stroke="rgb(0,0,0)" d="M 13527,12896 L 14731,12896"/>
        <path fill="none" stroke="rgb(0,0,0)" d="M 14731,12896 L 14731,13427"/>
        <path fill="none" stroke="rgb(0,0,0)" d="M 14731,13427 L 15935,13427"/>
        <path fill="none" stroke="rgb(0,0,0)" d="M 15935,12896 L 15935,13427"/>
        <path fill="none" stroke="rgb(0,0,0)" d="M 14731,12896 L 15935,12896"/>
        <path fill="none" stroke="rgb(0,0,0)" d="M 15935,12896 L 15935,13427"/>
        <path fill="none" stroke="rgb(0,0,0)" d="M 15935,13427 L 17139,13427"/>
        <path fill="none" stroke="rgb(0,0,0)" d="M 17139,12896 L 17139,13427"/>
        <path fill="none" stroke="rgb(0,0,0)" d="M 15935,12896 L 17139,12896"/>
        <path fill="none" stroke="rgb(0,0,0)" d="M 17139,12896 L 17139,13427"/>
        <path fill="none" stroke="rgb(0,0,0)" d="M 17139,13427 L 18343,13427"/>
        <path fill="none" stroke="rgb(0,0,0)" d="M 18343,12896 L 18343,13427"/>
        <path fill="none" stroke="rgb(0,0,0)" d="M 17139,12896 L 18343,12896"/>
        <path fill="none" stroke="rgb(0,0,0)" d="M 18343,12896 L 18343,13427"/>
        <path fill="none" stroke="rgb(0,0,0)" d="M 18343,13427 L 19547,13427"/>
        <path fill="none" stroke="rgb(0,0,0)" d="M 19547,12896 L 19547,13427"/>
        <path fill="none" stroke="rgb(0,0,0)" d="M 18343,12896 L 19547,12896"/>
        <path fill="none" stroke="rgb(0,0,0)" d="M 19547,12896 L 19547,13427"/>
        <path fill="none" stroke="rgb(0,0,0)" d="M 19547,13427 L 20764,13427"/>
        <path fill="none" stroke="rgb(0,0,0)" d="M 20764,12896 L 20764,13427"/>
        <path fill="none" stroke="rgb(0,0,0)" d="M 19547,12896 L 20764,12896"/>
       </g>
      </g>
     </g>
     <g class="com.sun.star.drawing.TextShape">
      <g id="id11">
       <text class="TextShape"><tspan class="TextParagraph" font-family="Liberation Sans, sans-serif" font-size="494px" font-weight="400"><tspan class="TextPosition" x="14350" y="1736"><tspan fill="rgb(0,0,0)" stroke="none">MD Processor</tspan></tspan></tspan></text>
      </g>
     </g>
     <g class="com.sun.star.drawing.TextShape">
      <g id="id12">
       <text class="TextShape"><tspan class="TextParagraph" font-family="Liberation Sans, sans-serif" font-size="318px" font-weight="400"><tspan class="TextPosition" x="1960" y="5511"><tspan fill="rgb(0,0,0)" stroke="none">[Messages]</tspan></tspan></tspan><tspan class="TextParagraph" font-family="Liberation Sans, sans-serif" font-size="318px" font-weight="400"><tspan class="TextPosition" x="1960" y="5867"><tspan fill="rgb(0,0,0)" stroke="none">add</tspan></tspan></tspan><tspan class="TextParagraph" font-family="Liberation Sans, sans-serif" font-size="318px" font-weight="400"><tspan class="TextPosition" x="1960" y="6223"><tspan fill="rgb(0,0,0)" stroke="none">modify</tspan></tspan></tspan><tspan class="TextParagraph" font-family="Liberation Sans, sans-serif" font-size="318px" font-weight="400"><tspan class="TextPosition" x="1960" y="6579"><tspan fill="rgb(0,0,0)" stroke="none">cancel</tspan></tspan></tspan><tspan class="TextParagraph" font-family="Liberation Sans, sans-serif" font-size="318px" font-weight="400"><tspan class="TextPosition" x="1960" y="6935"><tspan fill="rgb(0,0,0)" stroke="none">trade</tspan></tspan></tspan></text>
      </g>
     </g>
     <g class="com.sun.star.drawing.LineShape">
      <g id="id13">
       <path fill="none" stroke="rgb(0,0,0)" d="M 8305,4830 L 8305,5946"/>
       <path fill="rgb(0,0,0)" stroke="none" d="M 8305,4400 L 8155,4850 8455,4850 8305,4400 Z"/>
       <path fill="rgb(0,0,0)" stroke="none" d="M 8305,6376 L 8455,5926 8155,5926 8305,6376 Z"/>
      </g>
     </g>
     <g class="com.sun.star.drawing.LineShape">
      <g id="id14">
       <path fill="none" stroke="rgb(0,0,0)" d="M 10023,7312 L 12660,7312"/>
       <path fill="rgb(0,0,0)" stroke="none" d="M 13090,7312 L 12640,7162 12640,7462 13090,7312 Z"/>
      </g>
     </g>
     <g class="com.sun.star.drawing.LineShape">
      <g id="id15">
       <path fill="none" stroke="rgb(0,0,0)" d="M 10145,8559 L 12659,8559"/>
       <path fill="rgb(0,0,0)" stroke="none" d="M 13089,8559 L 12639,8409 12639,8709 13089,8559 Z"/>
      </g>
     </g>
     <g class="com.sun.star.drawing.LineShape">
      <g id="id16">
       <path fill="none" stroke="rgb(0,0,0)" d="M 10023,9703 L 12660,9703"/>
       <path fill="rgb(0,0,0)" stroke="none" d="M 13090,9703 L 12640,9553 12640,9853 13090,9703 Z"/>
      </g>
     </g>
     <g class="com.sun.star.drawing.LineShape">
      <g id="id17">
       <path fill="none" stroke="rgb(0,0,0)" d="M 10023,10847 L 12660,10847"/>
       <path fill="rgb(0,0,0)" stroke="none" d="M 13090,10847 L 12640,10697 12640,10997 13090,10847 Z"/>
      </g>
     </g>
     <g class="com.sun.star.drawing.LineShape">
      <g id="id18">
       <path fill="none" stroke="rgb(0,0,0)" d="M 1500,7369 L 6281,7412"/>
       <path fill="rgb(0,0,0)" stroke="none" d="M 6711,7416 L 6262,7262 6260,7562 6711,7416 Z"/>
      </g>
     </g>
     <g class="com.sun.star.drawing.LineShape">
      <g id="id19">
       <path fill="none" stroke="rgb(0,0,0)" d="M 7000,17812 L 1651,17801"/>
       <path fill="rgb(0,0,0)" stroke="none" d="M 1221,17800 L 1671,17951 1671,17651 1221,17800 Z"/>
      </g>
     </g>
     <g class="com.sun.star.drawing.ConnectorShape">
      <g id="id20">
       <path fill="none" stroke="rgb(0,0,0)" d="M 17198,13862 L 17198,14363 23003,14363 23003,8199 24270,8199"/>
       <path fill="rgb(0,0,0)" stroke="none" d="M 24700,8199 L 24250,8049 24250,8349 24700,8199 Z"/>
      </g>
     </g>
     <g class="com.sun.star.drawing.LineShape">
      <g id="id21">
       <path fill="none" stroke="rgb(0,0,0)" d="M 13090,12407 L 10453,12407"/>
       <path fill="rgb(0,0,0)" stroke="none" d="M 10023,12407 L 10473,12557 10473,12257 10023,12407 Z"/>
      </g>
     </g>
     <g class="com.sun.star.drawing.LineShape">
      <g id="id22">
       <path fill="none" stroke="rgb(0,0,0)" d="M 21400,3600 L 24470,3600"/>
       <path fill="rgb(0,0,0)" stroke="none" d="M 24900,3600 L 24450,3450 24450,3750 24900,3600 Z"/>
      </g>
     </g>
     <g class="com.sun.star.drawing.TextShape">
      <g id="id23">
       <text class="TextShape"><tspan class="TextParagraph" font-family="Liberation Sans, sans-serif" font-size="318px" font-weight="400"><tspan class="TextPosition" x="1950" y="18313"><tspan fill="rgb(0,0,0)" stroke="none">[Text,CSV]</tspan></tspan></tspan><tspan class="TextParagraph" font-family="Liberation Sans, sans-serif" font-size="318px" font-weight="400"><tspan class="TextPosition" x="1950" y="18669"><tspan fill="rgb(0,0,0)" stroke="none">Order Books,</tspan></tspan></tspan><tspan class="TextParagraph" font-family="Liberation Sans, sans-serif" font-size="318px" font-weight="400"><tspan class="TextPosition" x="1950" y="19025"><tspan fill="rgb(0,0,0)" stroke="none">Trades,</tspan></tspan></tspan><tspan class="TextParagraph" font-family="Liberation Sans, sans-serif" font-size="318px" font-weight="400"><tspan class="TextPosition" x="1950" y="19381"><tspan fill="rgb(0,0,0)" stroke="none">Mid Prices</tspan></tspan></tspan></text>
      </g>
     </g>
     <g class="com.sun.star.drawing.TextShape">
      <g id="id24">
       <text class="TextShape"><tspan class="TextParagraph" font-family="Liberation Sans, sans-serif" font-size="318px" font-weight="400"><tspan class="TextPosition" x="10272" y="6885"><tspan fill="rgb(0,0,0)" stroke="none">[Order] add</tspan></tspan></tspan></text>
      </g>
     </g>
     <g class="com.sun.star.drawing.TextShape">
      <g id="id25">
       <text class="TextShape"><tspan class="TextParagraph" font-family="Liberation Sans, sans-serif" font-size="318px" font-weight="400"><tspan class="TextPosition" x="10152" y="8030"><tspan fill="rgb(0,0,0)" stroke="none">[Order] modify</tspan></tspan></tspan></text>
      </g>
     </g>
     <g class="com.sun.star.drawing.TextShape">
      <g id="id26">
       <text class="TextShape"><tspan class="TextParagraph" font-family="Liberation Sans, sans-serif" font-size="318px" font-weight="400"><tspan class="TextPosition" x="10276" y="9284"><tspan fill="rgb(0,0,0)" stroke="none">[Order] cancel</tspan></tspan></tspan></text>
      </g>
     </g>
     <g class="com.sun.star.drawing.TextShape">
      <g id="id27">
       <text class="TextShape"><tspan class="TextParagraph" font-family="Liberation Sans, sans-serif" font-size="318px" font-weight="400"><tspan class="TextPosition" x="10396" y="10421"><tspan fill="rgb(0,0,0)" stroke="none">[Trade] trade</tspan></tspan></tspan></text>
      </g>
     </g>
     <g class="com.sun.star.drawing.TextShape">
      <g id="id28">
       <text class="TextShape"><tspan class="TextParagraph" font-family="Liberation Sans, sans-serif" font-size="318px" font-weight="400"><tspan class="TextPosition" x="5150" y="14271"><tspan fill="rgb(0,0,0)" stroke="none">[Data]</tspan></tspan></tspan><tspan class="TextParagraph" font-family="Liberation Sans, sans-serif" font-size="318px" font-weight="400"><tspan class="TextPosition" x="5150" y="14627"><tspan fill="rgb(0,0,0)" stroke="none">Order Books,Trades,</tspan></tspan></tspan><tspan class="TextParagraph" font-family="Liberation Sans, sans-serif" font-size="318px" font-weight="400"><tspan class="TextPosition" x="5150" y="14983"><tspan fill="rgb(0,0,0)" stroke="none">Mid Prices</tspan></tspan></tspan></text>
      </g>
     </g>
     <g class="com.sun.star.drawing.TextShape">
      <g id="id29">
       <text class="TextShape"><tspan class="TextParagraph" font-family="Liberation Sans, sans-serif" font-size="318px" font-weight="400"><tspan class="TextPosition" x="10518" y="13027"><tspan fill="rgb(0,0,0)" stroke="none">[Data]</tspan></tspan></tspan><tspan class="TextParagraph" font-family="Liberation Sans, sans-serif" font-size="318px" font-weight="400"><tspan class="TextPosition" x="10518" y="13383"><tspan fill="rgb(0,0,0)" stroke="none">Order Books,</tspan></tspan></tspan><tspan class="TextParagraph" font-family="Liberation Sans, sans-serif" font-size="318px" font-weight="400"><tspan class="TextPosition" x="10518" y="13739"><tspan fill="rgb(0,0,0)" stroke="none">Trades,</tspan></tspan></tspan><tspan class="TextParagraph" font-family="Liberation Sans, sans-serif" font-size="318px" font-weight="400"><tspan class="TextPosition" x="10518" y="14095"><tspan fill="rgb(0,0,0)" stroke="none">Mid Prices</tspan></tspan></tspan></text>
      </g>
     </g>
     <g class="com.sun.star.drawing.TextShape">
      <g id="id30">
       <text class="TextShape"><tspan class="TextParagraph" font-family="Liberation Sans, sans-serif" font-size="318px" font-weight="400"><tspan class="TextPosition" x="8750" y="5613"><tspan fill="rgb(0,0,0)" stroke="none">[Message] [Order, Trade]</tspan></tspan></tspan></text>
      </g>
     </g>
     <g class="com.sun.star.drawing.TextShape">
      <g id="id31">
       <text class="TextShape"><tspan class="TextParagraph" font-family="Liberation Sans, sans-serif" font-size="318px" font-weight="400"><tspan class="TextPosition" x="8750" y="5212"><tspan fill="rgb(0,0,0)" stroke="none">[Message] [Event type]</tspan></tspan></tspan></text>
      </g>
     </g>
     <g class="com.sun.star.drawing.TextShape">
      <g id="id32">
       <text class="TextShape"><tspan class="TextParagraph" font-family="Liberation Sans, sans-serif" font-size="318px" font-weight="400"><tspan class="TextPosition" x="21640" y="4213"><tspan fill="rgb(0,0,0)" stroke="none">[Error] Order,Trade</tspan></tspan></tspan></text>
      </g>
     </g>
     <g class="com.sun.star.drawing.TextShape">
      <g id="id33">
       <text class="TextShape"><tspan class="TextParagraph" font-family="Liberation Sans, sans-serif" font-size="318px" font-weight="400"><tspan class="TextPosition" x="18304" y="14782"><tspan fill="rgb(0,0,0)" stroke="none">[Error] Order Book</tspan></tspan></tspan></text>
      </g>
     </g>
     <g class="com.sun.star.drawing.CustomShape">
      <g id="id34">
       <path fill="none" stroke="rgb(52,101,175)" d="M 11700,16100 C 11550,16100 11400,16250 11400,16400 L 11400,16400 C 11400,16550 11550,16701 11700,16701"/>
       <path fill="none" stroke="rgb(52,101,175)" d="M 11400,16100 L 11400,16100 Z"/>
       <path fill="none" stroke="rgb(52,101,175)" d="M 18101,16701 L 18101,16701 Z"/>
       <path fill="none" stroke="rgb(52,101,175)" d="M 17800,16701 C 17950,16701 18101,16550 18101,16400 L 18101,16400 C 18101,16250 17950,16100 17800,16100"/>
       <path fill="none" stroke="rgb(52,101,175)" d="M 11400,16100 L 11400,16100 Z"/>
       <path fill="none" stroke="rgb(52,101,175)" d="M 18101,16701 L 18101,16701 Z"/>
      </g>
     </g>
     <g class="com.sun.star.drawing.ConnectorShape">
      <g id="id35">
       <path fill="none" stroke="rgb(0,0,0)" d="M 8366,13769 L 8366,16400 10970,16400"/>
       <path fill="rgb(0,0,0)" stroke="none" d="M 11400,16400 L 10950,16250 10950,16550 11400,16400 Z"/>
      </g>
     </g>
     <g class="com.sun.star.drawing.ConnectorShape">
      <g id="id36">
       <path fill="none" stroke="rgb(0,0,0)" d="M 18100,16400 L 21708,16400 21708,18338 21638,18338"/>
       <path fill="rgb(0,0,0)" stroke="none" d="M 21208,18338 L 21658,18488 21658,18188 21208,18338 Z"/>
      </g>
     </g>
     <g class="com.sun.star.drawing.CustomShape">
      <g id="id37">
       <path fill="none" stroke="rgb(102,0,102)" d="M 16300,15300 L 4600,15300 4600,2100 28000,2100 28000,15300 16300,15300 Z"/>
      </g>
     </g>
     <g class="com.sun.star.drawing.CustomShape">
      <g id="id38">
       <path fill="none" stroke="rgb(102,0,102)" d="M 16200,19600 L 4400,19600 4400,17000 28000,17000 28000,19600 16200,19600 Z"/>
      </g>
     </g>
     <g class="com.sun.star.drawing.TextShape">
      <g id="id39">
       <text class="TextShape"><tspan class="TextParagraph" font-family="Liberation Sans, sans-serif" font-size="318px" font-weight="400"><tspan class="TextPosition" x="11850" y="16582"><tspan fill="rgb(0,0,0)" stroke="none">[Data] OB1,OB2,T1,OB2,M1,M2,OB3,T3</tspan></tspan></tspan></text>
      </g>
     </g>
     <g class="com.sun.star.drawing.TextShape">
      <g id="id40">
       <text class="TextShape"><tspan class="TextParagraph" font-family="Liberation Sans, sans-serif" font-size="318px" font-weight="700"><tspan class="TextPosition" x="4450" y="16813"><tspan fill="rgb(0,0,0)" stroke="none">[Thread] publisher</tspan></tspan></tspan></text>
      </g>
     </g>
     <g class="com.sun.star.drawing.TextShape">
      <g id="id41">
       <text class="TextShape"><tspan class="TextParagraph" font-family="Liberation Sans, sans-serif" font-size="318px" font-weight="700"><tspan class="TextPosition" x="4650" y="1813"><tspan fill="rgb(0,0,0)" stroke="none">[Thread] main</tspan></tspan></tspan></text>
      </g>
     </g>
     <g class="com.sun.star.drawing.TextShape">
      <g id="id42">
       <text class="TextShape"><tspan class="TextParagraph" font-family="Liberation Sans, sans-serif" font-size="318px" font-weight="700"><tspan class="TextPosition" x="12550" y="16013"><tspan fill="rgb(0,0,0)" stroke="none">[Message Queue] order book</tspan></tspan></tspan></text>
      </g>
     </g>
    </g>
   </g>
  </g>
 </g>
</svg>